<?xml version="1.0" encoding="UTF-8"?>
<svg id="_Слой_1" data-name="Слой 1" xmlns="http://www.w3.org/2000/svg" viewBox="0 0 1159 1159">
  <g>
    <path d="M586.9,1071.31c12.41.01,23.3-.3,32.67-.93,18.24-1.23,37.07-3.56,56.5-6.98,19.1-3.37,37.56-7.78,55.39-13.23,48.72-14.92,95.09-36.6,137.29-66.15,28.13-19.69,51.4-39.26,73.71-62.06,54.3-55.48,96.14-122.83,119.64-196.94,20.86-65.79,28.17-132.6,21.93-200.43-10.24-111.15-56.38-216.59-133.54-297.68-33.91-35.65-71.99-66.26-114.83-90.23-64.09-35.85-132.36-56.92-204.83-63.22-5.12-.45-10.34-.5-15.34-1.08-8.52-.98-15-.59-27.77-.6-12.76-.01-19.25-.41-27.77.55-5,.58-10.22.62-15.34,1.06-72.47,6.18-140.78,27.14-204.93,62.88-42.88,23.9-81.01,54.45-114.98,90.04-77.3,80.96-123.61,186.32-134.03,297.46-6.35,67.82.84,134.64,21.59,200.46,23.38,74.15,65.11,141.57,119.32,197.14,22.27,22.84,45.51,42.45,73.61,62.18,42.15,29.62,88.48,51.38,137.18,66.38,17.81,5.48,36.27,9.92,55.36,13.32,19.42,3.45,38.25,5.81,56.49,7.08,9.37.65,20.27.97,32.68.98" vector-effect="non-scaling-stroke" style="fill: none; stroke: #284224; stroke-width: 2px;"/>
    <path d="M577.17,1037.33c18.57.41,35.24-.02,50.02-1.29,67.69-5.82,131.31-25.65,190.86-59.5,25.95-14.75,49.4-31.31,70.34-49.66,12.67-11.11,22.01-19.69,28-25.76,9.73-9.86,19.85-21.07,30.35-33.63,26.91-32.19,49.19-68.24,66.86-108.13,9.51-21.48,17.32-43.43,23.42-65.85,10.59-38.89,15.92-79.14,15.98-120.75.03-24.19-1.31-46.2-4.02-66.04-7.52-54.85-24.11-106.54-49.76-155.07-20.67-39.09-47.12-75.04-77.84-106.52-49.62-50.87-110.98-90-178.45-113.28-24.32-8.39-47.89-14.63-70.72-18.71-24.12-4.31-49.01-6.74-74.66-7.31-25.66-.56-50.63.79-74.91,4.04-22.99,3.08-46.81,8.28-71.48,15.6-68.42,20.31-131.43,56.71-183.23,105.37-32.07,30.1-60.06,64.86-82.42,103.01-27.75,47.36-46.58,98.28-56.49,152.75-3.58,19.7-5.88,41.63-6.91,65.8-1.76,41.57,1.8,82.02,10.69,121.33,5.11,22.67,11.95,44.94,20.51,66.81,15.91,40.63,36.6,77.61,62.07,110.95,9.94,13.01,19.56,24.65,28.85,34.93,5.73,6.32,14.68,15.31,26.85,26.96,20.11,19.25,42.81,36.81,68.1,52.68,58.01,36.42,120.71,59.02,188.08,67.79,14.71,1.91,31.34,3.07,49.91,3.48" vector-effect="non-scaling-stroke" style="fill: none; stroke: #284224; stroke-width: 2px;"/>
    <path d="M578.91,310.88c23.91,0,47.97,5.73,67.94,19.15,5.28,3.55,8.83,7.53,12.32,12.29.45.61,1.16.97,1.91.97h148.83c.3,0,.54-.25.54-.54,0-.03,0-.05,0-.08-4.1-28.04-16.57-54.99-36.24-75.55-23.71-24.79-56.18-42.72-90.43-48.95-.44-.08-.75-.46-.75-.9v-74.05c0-.52-.42-.94-.94-.94h-69.47c-.47,0-.86.38-.86.85v67.03c0,.3-.24.54-.54.54-11.63-.11-22.39-.16-32.28-.17-9.89,0-20.65.05-32.28.15-.29,0-.53-.24-.54-.53l.03-67.03c0-.47-.39-.85-.86-.85l-69.47-.03c-.52,0-.94.42-.94.94l-.03,74.05c0,.44-.31.82-.75.9-34.26,6.21-66.73,24.13-90.45,48.91-19.68,20.55-32.16,47.5-36.28,75.54-.04.29.16.57.45.61.03,0,.05,0,.08,0l148.83.06c.76,0,1.47-.36,1.92-.97,3.49-4.76,7.04-8.74,12.32-12.29,19.97-13.41,44.04-19.13,67.95-19.12" vector-effect="non-scaling-stroke" style="fill: none; stroke: #284224; stroke-width: 2px;"/>
    <path d="M707.3,407.75c-18.04,19.51-26.19,44.31-24.64,71.17,1.54,26.93,12.87,50.7,33.48,67.61,10.36,8.5,21.46,14.4,33.29,17.7,35.23,9.82,74.18,1.42,99.27-25.71,25.09-27.14,30.43-66.62,17.89-100.98-4.21-11.54-10.96-22.14-20.25-31.81-18.47-19.22-43.05-28.66-70.01-28.1-26.9.56-51,10.62-69.03,30.12" vector-effect="non-scaling-stroke" style="fill: none; stroke: gray; stroke-width: 2px;"/>
    <path d="M383.43,567.53c21.77-.01,43.07-5.16,59.31-20.2,13.59-12.59,20.56-31.66,20.59-50.09.02-14.41,0-52.72-.04-114.94,0-.31-.26-.57-.57-.57h-43.73c-.31,0-.56.25-.56.55-.16,31.03-.15,64.36.04,99.99.1,18.29-2.11,33.8-20.6,42.29-4.24,1.95-9.06,2.93-14.46,2.93s-10.22-.97-14.47-2.91c-18.5-8.48-20.72-23.98-20.64-42.27.15-35.63.13-68.96-.06-99.99,0-.3-.25-.55-.56-.55h0l-43.73.04c-.31,0-.57.26-.57.57h0c.01,62.22.04,100.53.07,114.94.05,18.43,7.04,37.49,20.64,50.07,16.26,15.03,37.56,20.15,59.34,20.14" vector-effect="non-scaling-stroke" style="fill: none; stroke: gray; stroke-width: 2px;"/>
    <path d="M541.44,458.24l72.09,104.58c.23.34.61.54,1.02.54h41.26c.41,0,.74-.34.74-.75v-180.15c0-.38-.3-.68-.68-.68h-43.4c-.27,0-.48.21-.48.48v103.49c0,.13-.11.24-.24.24-.08,0-.15-.04-.2-.11l-71.15-103.22c-.37-.54-.98-.86-1.64-.86h-41.22c-.36,0-.65.29-.65.65h0v180.37c0,.3.25.55.55.55h42.89c.33,0,.59-.26.59-.59.16-35.55.16-69.14.01-100.77,0-2.21.1-3.46.31-3.77.04-.06.11-.07.17-.03.01,0,.02.02.03.03" vector-effect="non-scaling-stroke" style="fill: none; stroke: gray; stroke-width: 2px;"/>
    <path d="M439.99,656.01c.21.4.7.56,1.11.35.04-.02.09-.05.12-.08l17.63-13.7c.36-.28.47-.79.24-1.19-10.72-19.21-35.58-24.81-55.69-20.25-7.71,1.75-14.35,4.86-19.92,9.33-25.76,20.62-27.8,58.52-4.24,81.74,7.93,7.81,16.46,12.59,25.6,14.34,14.97,2.87,28.68.41,41.11-7.4,5.5-3.45,12.18-9.65,14.54-16.35.27-.78-.06-1.65-.79-2.05l-19-10.29c-.2-.11-.45-.04-.56.16,0,0,0,0,0,.01-4.55,8.57-11.41,13.34-20.6,14.31-7.33.78-15.35-1.43-20.63-6.58-8.38-8.17-11.64-18.54-9.78-31.11.91-6.17,3.23-11.56,6.96-16.18,5.81-7.2,13.5-9.59,22.53-9.04,9.45.57,16.94,5.36,21.38,13.98" vector-effect="non-scaling-stroke" style="fill: none; stroke: gray; stroke-width: 2px;"/>
    <path d="M882.05,717.3v8.55c0,.41.34.75.75.75h20.04c.44,0,.8-.36.8-.8v-55.05c0-.43-.35-.77-.78-.77h-41.4c-.34,0-.61.27-.61.61h0v17.06c0,.45.36.81.8.81h19.04c.35,0,.63.28.64.62,0,.03,0,.06,0,.09-.83,6.51-9.72,12.13-15.63,14.26-8.7,3.15-16.83,2.37-24.39-2.32-12.26-7.63-15.23-23.34-12.47-36.29,3.61-16.97,18.21-26.87,35.36-21.96,7.87,2.25,12.07,7.08,16.83,13.58.1.14.3.17.44.07,0,0,.01-.01.02-.02l17.47-14.8c.36-.3.44-.83.19-1.23-16.14-26.39-58.43-27.02-79.79-7.1-17.77,16.57-22.64,42.98-11.86,64.88,9.51,19.29,27.89,30.62,49.56,29.35,10.15-.59,16.89-4.38,24.32-10.61.17-.15.43-.13.58.05.06.08.1.17.1.27" vector-effect="non-scaling-stroke" style="fill: none; stroke: gray; stroke-width: 2px;"/>
    <path d="M256.25,705.31c0-.32-.26-.58-.58-.58h-49.66c-.32,0-.58-.26-.58-.58v-21.11c0-.32.26-.58.58-.58h40.85c.32,0,.58-.26.58-.58h0v-19.45c0-.32-.26-.58-.58-.58h-40.87c-.32,0-.58-.26-.58-.58v-18.55c0-.32.26-.58.58-.58h47.82c.32,0,.58-.26.58-.58h0v-20.59c0-.32-.26-.58-.58-.58h-73.68c-.32,0-.58.26-.58.58v105.12c0,.32.26.58.58.58h75.54c.32,0,.58-.26.58-.58v-20.78" vector-effect="non-scaling-stroke" style="fill: none; stroke: gray; stroke-width: 2px;"/>
    <path d="M296.52,673.55c0,.3-.07.55-.2.75-9.08,13.73-20.42,30.9-34.02,51.5-.14.22-.08.52.14.66.08.05.17.08.26.08h26.49c.65,0,1.25-.33,1.58-.88,5.03-8.18,11.98-19.38,20.85-33.6.07-.1.2-.15.4-.15s.34.05.41.15c8.87,14.22,15.83,25.42,20.86,33.59.33.55.93.88,1.58.88h26.49c.27-.01.48-.23.48-.49,0-.09-.03-.18-.08-.26-13.61-20.59-24.95-37.75-34.04-51.48-.13-.2-.2-.45-.2-.75s.07-.55.2-.75c9.08-13.73,20.42-30.9,34.02-51.5.14-.22.08-.52-.14-.66-.08-.05-.17-.08-.26-.08h-26.49c-.65,0-1.25.33-1.58.88-5.03,8.18-11.98,19.38-20.85,33.6-.06.1-.19.15-.4.15s-.34-.05-.4-.15c-8.87-14.21-15.83-25.41-20.87-33.59-.33-.55-.93-.88-1.58-.88h-26.49c-.27.01-.48.23-.48.49,0,.09.03.18.08.26,13.61,20.59,24.95,37.76,34.04,51.49.13.2.2.45.2.74" vector-effect="non-scaling-stroke" style="fill: none; stroke: gray; stroke-width: 2px;"/>
    <path d="M520.22,682.56c13.29,0,20.05.01,20.3.04.2.02.35.19.35.4l.04,42.79c0,.44.35.79.79.79h24.15c.47,0,.86-.38.86-.85h0v-104.63c0-.34-.28-.62-.63-.62h-24.57c-.34,0-.61.27-.61.6h0v39.09c0,.23-.19.42-.42.43-2.5,0-9.25,0-20.25,0-11,0-17.75,0-20.25-.02-.23,0-.41-.19-.42-.42l.03-39.09c0-.33-.27-.6-.61-.6h0l-24.57-.02c-.35,0-.63.28-.63.62l-.07,104.63c0,.47.39.85.86.85l24.15.02c.44,0,.79-.35.79-.79l.07-42.79c0-.2.14-.37.34-.4.25-.03,7.02-.04,20.3-.03" vector-effect="non-scaling-stroke" style="fill: none; stroke: gray; stroke-width: 2px;"/>
    <path d="M616.39,620.52c-.23,0-.43.14-.51.35l-38.58,104.92c-.1.28.04.59.32.7.06.02.12.03.18.03h24.87c.23,0,.43-.14.51-.35l8.24-22.42c.08-.21.28-.35.51-.35h33.34c.23,0,.43.14.51.35l8.31,22.43c.08.21.28.35.51.35h25.5c.3,0,.54-.24.54-.54,0-.07-.01-.13-.03-.19l-38.87-104.93c-.08-.21-.28-.35-.51-.35h-24.84" vector-effect="non-scaling-stroke" style="fill: none; stroke: gray; stroke-width: 2px;"/>
    <path d="M717.79,666.15l46.13,59.36c.51.65,1.28,1.03,2.1,1.03h19.93c.29,0,.53-.23.53-.52v-105.13c0-.23-.19-.42-.42-.42h-24.45c-.22,0-.39.18-.39.4h0v60.48c0,.17-.14.3-.3.3-.09,0-.17-.04-.23-.11l-46.76-60.17c-.45-.57-1.14-.91-1.87-.91h-19.62c-.37,0-.67.3-.67.67v104.55c0,.5.4.9.89.9h23.73c.53,0,.96-.43.96-.96v-59.32c0-.14.12-.24.26-.24.07,0,.13.04.18.09" vector-effect="non-scaling-stroke" style="fill: none; stroke: gray; stroke-width: 2px;"/>
    <path d="M946.23,703.94l-.09-21.1c0-.21.17-.37.38-.38l41-.05c.3,0,.54-.24.55-.54l.21-19.11c0-.49-.39-.88-.88-.89,0,0,0,0-.01,0l-40.5-.02c-.35,0-.63-.28-.63-.63h0l-.02-18.62c0-.23.19-.42.43-.42h0l47.48.05c.53,0,.96-.43.97-.96l.16-20.19c0-.33-.26-.59-.58-.59h0l-73.98-.07c-.16,0-.29.13-.29.3l-.07,105.06c0,.41.33.74.74.74l75.24.07c.34,0,.61-.27.61-.61,0,0,0,0,0-.01l-.15-20.69c0-.32-.27-.58-.59-.58l-49.26-.04c-.4,0-.72-.32-.72-.72h0" vector-effect="non-scaling-stroke" style="fill: none; stroke: gray; stroke-width: 2px;"/>
    <path d="M578.91,790.52c-23.89,0-47.95-5.72-67.9-19.14-5.28-3.55-8.83-7.52-12.32-12.28-.45-.61-1.16-.97-1.91-.97h-148.75c-.3,0-.54.25-.54.54,0,.03,0,.05,0,.08,4.1,28.03,16.56,54.96,36.22,75.51,23.7,24.78,56.15,42.7,90.39,48.93.44.08.75.46.75.9v74.01c0,.52.42.94.94.94h69.43c.47,0,.86-.38.86-.85h0v-67c0-.3.24-.54.54-.54,11.63.11,22.38.16,32.26.17,9.89,0,20.64-.05,32.27-.15.29,0,.53.24.54.53l-.03,67c0,.47.39.85.86.85h0l69.44.03c.52,0,.94-.42.94-.94h0l.02-74.02c0-.44.32-.81.75-.89,34.24-6.22,66.7-24.13,90.41-48.89,19.67-20.55,32.14-47.48,36.25-75.5.04-.29-.16-.57-.45-.61-.03,0-.05,0-.08,0l-148.76-.06c-.75,0-1.46.36-1.9.97-3.49,4.75-7.04,8.73-12.33,12.28-19.95,13.4-44.01,19.12-67.91,19.11" vector-effect="non-scaling-stroke" style="fill: none; stroke: #284224; stroke-width: 2px;"/>
    <path d="M740.76,427.93v14.14c0,.33.24.6.56.64.31.05,2.21.15,5.68.3,2.09.09,3.13,1.11,3.14,3.05.06,12.13.07,30.27.04,54.44,0,1.98-.19,3.45-.55,4.4-.25.65-.87,1.08-1.58,1.08h-6.48c-.41,0-.75.34-.75.75h0v14.16c0,.28.22.5.5.5h21.17c.39,0,.71.32.71.71v11.76c0,.3.24.54.53.54h9.63c.26,0,.47-.21.47-.47h0v-11.65c0-.47.38-.85.84-.85h7.25c.48,0,.87.39.87.88v11.44c0,.35.28.63.63.63h9.96c.26,0,.47-.21.47-.47h0v-12.11c0-.35.27-.64.62-.68,16.79-1.49,30.38-9.91,30.24-28.58-.08-10.55-6-18.96-16.14-22.2-.32-.1-.5-.44-.4-.76.05-.16.16-.29.31-.37,4.73-2.39,8.14-6.13,9.61-11.29,2.34-8.24.6-18.47-6.25-23.73-4.96-3.81-10.71-6.15-17.26-7.01-.37-.05-.64-.37-.64-.74v-11.21c0-.31-.25-.56-.56-.56h-9.66c-.5,0-.9.4-.9.89v10.48c0,.51-.42.93-.93.93h-7.12c-.47,0-.85-.38-.85-.85h0v-10.62c0-.45-.36-.81-.81-.81h-9.29c-.31-.01-.56.25-.56.56h0v11.24c0,.45-.36.81-.81.81h-21.06c-.35,0-.63.28-.63.63h0" vector-effect="non-scaling-stroke" style="fill: none; stroke: gray; stroke-width: 2px;"/>
    <path d="M770.06,443.66l.35,20.01c0,.39.32.7.71.69h0l12.17-.21c7.77-.14,13.99-4.79,13.89-10.39,0,0,0,0,0,0l-.02-1.11c-.09-5.6-6.47-10.04-14.24-9.91h-.01s-12.16.21-12.16.21c-.39,0-.7.32-.69.71,0,0,0,0,0,.01" vector-effect="non-scaling-stroke" style="fill: none; stroke: gray; stroke-width: 2px;"/>
    <path d="M770.14,481.29l.16,23.82c0,.41.34.74.75.73h0l15.14-.1c8.66-.06,15.64-5.39,15.6-11.9h0s-.02-1.72-.02-1.72c-.05-6.51-7.1-11.74-15.76-11.68l-15.14.11c-.4,0-.73.34-.73.74" vector-effect="non-scaling-stroke" style="fill: none; stroke: gray; stroke-width: 2px;"/>
    <path d="M616.29,684.79c-.06.18.04.38.22.44.03.01.07.02.11.02l24.09.08c.19,0,.35-.15.35-.35,0-.04,0-.07-.01-.1l-11.92-37.23c-.06-.18-.25-.29-.44-.23-.11.03-.2.12-.23.23l-12.17,37.14" vector-effect="non-scaling-stroke" style="fill: none; stroke: gray; stroke-width: 2px;"/>
  </g>
  <path d="M1159,0v1159H0V0h1159ZM586.9,1071.31c12.41.01,23.3-.3,32.67-.93,18.24-1.23,37.07-3.56,56.5-6.98,19.1-3.37,37.56-7.78,55.39-13.23,48.72-14.92,95.09-36.6,137.29-66.15,28.13-19.69,51.4-39.26,73.71-62.06,54.3-55.48,96.14-122.83,119.64-196.94,20.86-65.79,28.17-132.6,21.93-200.43-10.24-111.15-56.38-216.59-133.54-297.68-33.91-35.65-71.99-66.26-114.83-90.23-64.09-35.85-132.36-56.92-204.83-63.22-5.12-.45-10.34-.5-15.34-1.08-8.52-.98-15-.59-27.77-.6-12.76-.01-19.25-.41-27.77.55-5,.58-10.22.62-15.34,1.06-72.47,6.18-140.78,27.14-204.93,62.88-42.88,23.9-81.01,54.45-114.98,90.04-77.3,80.96-123.61,186.32-134.03,297.46-6.35,67.82.84,134.64,21.59,200.46,23.38,74.15,65.11,141.57,119.32,197.14,22.27,22.84,45.51,42.45,73.61,62.18,42.15,29.62,88.48,51.38,137.18,66.38,17.81,5.48,36.27,9.92,55.36,13.32,19.42,3.45,38.25,5.81,56.49,7.08,9.37.65,20.27.97,32.68.98Z" style="stroke-width: 0px;"/>
  <path d="M587.72,71.78c12.77.01,19.25-.38,27.77.6,5,.58,10.22.63,15.34,1.08,72.47,6.3,140.74,27.37,204.83,63.22,42.84,23.97,80.92,54.58,114.83,90.23,77.16,81.09,123.3,186.53,133.54,297.68,6.24,67.83-1.07,134.64-21.93,200.43-23.5,74.11-65.34,141.46-119.64,196.94-22.31,22.8-45.58,42.37-73.71,62.06-42.2,29.55-88.57,51.23-137.29,66.15-17.83,5.45-36.29,9.86-55.39,13.23-19.43,3.42-38.26,5.75-56.5,6.98-9.37.63-20.26.94-32.67.93-12.41,0-23.31-.33-32.68-.98-18.24-1.27-37.07-3.63-56.49-7.08-19.09-3.4-37.55-7.84-55.36-13.32-48.7-15-95.03-36.76-137.18-66.38-28.1-19.73-51.34-39.34-73.61-62.18-54.21-55.57-95.94-122.99-119.32-197.14-20.75-65.82-27.94-132.64-21.59-200.46,10.42-111.14,56.73-216.5,134.03-297.46,33.97-35.59,72.1-66.14,114.98-90.04,64.15-35.74,132.46-56.7,204.93-62.88,5.12-.44,10.34-.48,15.34-1.06,8.52-.96,15.01-.56,27.77-.55ZM577.17,1037.33c18.57.41,35.24-.02,50.02-1.29,67.69-5.82,131.31-25.65,190.86-59.5,25.95-14.75,49.4-31.31,70.34-49.66,12.67-11.11,22.01-19.69,28-25.76,9.73-9.86,19.85-21.07,30.35-33.63,26.91-32.19,49.19-68.24,66.86-108.13,9.51-21.48,17.32-43.43,23.42-65.85,10.59-38.89,15.92-79.14,15.98-120.75.03-24.19-1.31-46.2-4.02-66.04-7.52-54.85-24.11-106.54-49.76-155.07-20.67-39.09-47.12-75.04-77.84-106.52-49.62-50.87-110.98-90-178.45-113.28-24.32-8.39-47.89-14.63-70.72-18.71-24.12-4.31-49.01-6.74-74.66-7.31-25.66-.56-50.63.79-74.91,4.04-22.99,3.08-46.81,8.28-71.48,15.6-68.42,20.31-131.43,56.71-183.23,105.37-32.07,30.1-60.06,64.86-82.42,103.01-27.75,47.36-46.58,98.28-56.49,152.75-3.58,19.7-5.88,41.63-6.91,65.8-1.76,41.57,1.8,82.02,10.69,121.33,5.11,22.67,11.95,44.94,20.51,66.81,15.91,40.63,36.6,77.61,62.07,110.95,9.94,13.01,19.56,24.65,28.85,34.93,5.73,6.32,14.68,15.31,26.85,26.96,20.11,19.25,42.81,36.81,68.1,52.68,58.01,36.42,120.71,59.02,188.08,67.79,14.71,1.91,31.34,3.07,49.91,3.48Z" style="fill: #4f8447; stroke-width: 0px;"/>
  <path d="M597.55,105.83c25.65.57,50.54,3,74.66,7.31,22.83,4.08,46.4,10.32,70.72,18.71,67.47,23.28,128.83,62.41,178.45,113.28,30.72,31.48,57.17,67.43,77.84,106.52,25.65,48.53,42.24,100.22,49.76,155.07,2.71,19.84,4.05,41.85,4.02,66.04-.06,41.61-5.39,81.86-15.98,120.75-6.1,22.42-13.91,44.37-23.42,65.85-17.67,39.89-39.95,75.94-66.86,108.13-10.5,12.56-20.62,23.77-30.35,33.63-5.99,6.07-15.33,14.65-28,25.76-20.94,18.35-44.39,34.91-70.34,49.66-59.55,33.85-123.17,53.68-190.86,59.5-14.78,1.27-31.45,1.7-50.02,1.29-18.57-.41-35.2-1.57-49.91-3.48-67.37-8.77-130.07-31.37-188.08-67.79-25.29-15.87-47.99-33.43-68.1-52.68-12.17-11.65-21.12-20.64-26.85-26.96-9.29-10.28-18.91-21.92-28.85-34.93-25.47-33.34-46.16-70.32-62.07-110.95-8.56-21.87-15.4-44.14-20.51-66.81-8.89-39.31-12.45-79.76-10.69-121.33,1.03-24.17,3.33-46.1,6.91-65.8,9.91-54.47,28.74-105.39,56.49-152.75,22.36-38.15,50.35-72.91,82.42-103.01,51.8-48.66,114.81-85.06,183.23-105.37,24.67-7.32,48.49-12.52,71.48-15.6,24.28-3.25,49.25-4.6,74.91-4.04ZM578.91,310.88c23.91,0,47.97,5.73,67.94,19.15,5.28,3.55,8.83,7.53,12.32,12.29.45.61,1.16.97,1.91.97h148.83c.3,0,.54-.25.54-.54,0-.03,0-.05,0-.08-4.1-28.04-16.57-54.99-36.24-75.55-23.71-24.79-56.18-42.72-90.43-48.95-.44-.08-.75-.46-.75-.9v-74.05c0-.52-.42-.94-.94-.94h-69.47c-.47,0-.86.38-.86.85v67.03c0,.3-.24.54-.54.54-11.63-.11-22.39-.16-32.28-.17-9.89,0-20.65.05-32.28.15-.29,0-.53-.24-.54-.53l.03-67.03c0-.47-.39-.85-.86-.85l-69.47-.03c-.52,0-.94.42-.94.94l-.03,74.05c0,.44-.31.82-.75.9-34.26,6.21-66.73,24.13-90.45,48.91-19.68,20.55-32.16,47.5-36.28,75.54-.04.29.16.57.45.61.03,0,.05,0,.08,0l148.83.06c.76,0,1.47-.36,1.92-.97,3.49-4.76,7.04-8.74,12.32-12.29,19.97-13.41,44.04-19.13,67.95-19.12ZM707.3,407.75c-18.04,19.51-26.19,44.31-24.64,71.17,1.54,26.93,12.87,50.7,33.48,67.61,10.36,8.5,21.46,14.4,33.29,17.7,35.23,9.82,74.18,1.42,99.27-25.71,25.09-27.14,30.43-66.62,17.89-100.98-4.21-11.54-10.96-22.14-20.25-31.81-18.47-19.22-43.05-28.66-70.01-28.1-26.9.56-51,10.62-69.03,30.12ZM383.43,567.53c21.77-.01,43.07-5.16,59.31-20.2,13.59-12.59,20.56-31.66,20.59-50.09.02-14.41,0-52.72-.04-114.94,0-.31-.26-.57-.57-.57h-43.73c-.31,0-.56.25-.56.55-.16,31.03-.15,64.36.04,99.99.1,18.29-2.11,33.8-20.6,42.29-4.24,1.95-9.06,2.93-14.46,2.93s-10.22-.97-14.47-2.91c-18.5-8.48-20.72-23.98-20.64-42.27.15-35.63.13-68.96-.06-99.99,0-.3-.25-.55-.56-.55h0l-43.73.04c-.31,0-.57.26-.57.57h0c.01,62.22.04,100.53.07,114.94.05,18.43,7.04,37.49,20.64,50.07,16.26,15.03,37.56,20.15,59.34,20.14ZM541.44,458.24l72.09,104.58c.23.34.61.54,1.02.54h41.26c.41,0,.74-.34.74-.75v-180.15c0-.38-.3-.68-.68-.68h-43.4c-.27,0-.48.21-.48.48v103.49c0,.13-.11.24-.24.24-.08,0-.15-.04-.2-.11l-71.15-103.22c-.37-.54-.98-.86-1.64-.86h-41.22c-.36,0-.65.29-.65.65h0v180.37c0,.3.25.55.55.55h42.89c.33,0,.59-.26.59-.59.16-35.55.16-69.14.01-100.77,0-2.21.1-3.46.31-3.77.04-.06.11-.07.17-.03.01,0,.02.02.03.03ZM439.99,656.01c.21.4.7.56,1.11.35.04-.02.09-.05.12-.08l17.63-13.7c.36-.28.47-.79.24-1.19-10.72-19.21-35.58-24.81-55.69-20.25-7.71,1.75-14.35,4.86-19.92,9.33-25.76,20.62-27.8,58.52-4.24,81.74,7.93,7.81,16.46,12.59,25.6,14.34,14.97,2.87,28.68.41,41.11-7.4,5.5-3.45,12.18-9.65,14.54-16.35.27-.78-.06-1.65-.79-2.05l-19-10.29c-.2-.11-.45-.04-.56.16,0,0,0,0,0,.01-4.55,8.57-11.41,13.34-20.6,14.31-7.33.78-15.35-1.43-20.63-6.58-8.38-8.17-11.64-18.54-9.78-31.11.91-6.17,3.23-11.56,6.96-16.18,5.81-7.2,13.5-9.59,22.53-9.04,9.45.57,16.94,5.36,21.38,13.98ZM882.05,717.3v8.55c0,.41.34.75.75.75h20.04c.44,0,.8-.36.8-.8v-55.05c0-.43-.35-.77-.78-.77h-41.4c-.34,0-.61.27-.61.61h0v17.06c0,.45.36.81.8.81h19.04c.35,0,.63.28.64.62,0,.03,0,.06,0,.09-.83,6.51-9.72,12.13-15.63,14.26-8.7,3.15-16.83,2.37-24.39-2.32-12.26-7.63-15.23-23.34-12.47-36.29,3.61-16.97,18.21-26.87,35.36-21.96,7.87,2.25,12.07,7.08,16.83,13.58.1.14.3.17.44.07,0,0,.01-.01.02-.02l17.47-14.8c.36-.3.44-.83.19-1.23-16.14-26.39-58.43-27.02-79.79-7.1-17.77,16.57-22.64,42.98-11.86,64.88,9.51,19.29,27.89,30.62,49.56,29.35,10.15-.59,16.89-4.38,24.32-10.61.17-.15.43-.13.58.05.06.08.1.17.1.27ZM256.25,705.31c0-.32-.26-.58-.58-.58h-49.66c-.32,0-.58-.26-.58-.58v-21.11c0-.32.26-.58.58-.58h40.85c.32,0,.58-.26.58-.58h0v-19.45c0-.32-.26-.58-.58-.58h-40.87c-.32,0-.58-.26-.58-.58v-18.55c0-.32.26-.58.58-.58h47.82c.32,0,.58-.26.58-.58h0v-20.59c0-.32-.26-.58-.58-.58h-73.68c-.32,0-.58.26-.58.58v105.12c0,.32.26.58.58.58h75.54c.32,0,.58-.26.58-.58v-20.78ZM296.52,673.55c0,.3-.07.55-.2.75-9.08,13.73-20.42,30.9-34.02,51.5-.14.22-.08.52.14.66.08.05.17.08.26.08h26.49c.65,0,1.25-.33,1.58-.88,5.03-8.18,11.98-19.38,20.85-33.6.07-.1.2-.15.4-.15s.34.05.41.15c8.87,14.22,15.83,25.42,20.86,33.59.33.55.93.88,1.58.88h26.49c.27-.01.48-.23.48-.49,0-.09-.03-.18-.08-.26-13.61-20.59-24.95-37.75-34.04-51.48-.13-.2-.2-.45-.2-.75s.07-.55.2-.75c9.08-13.73,20.42-30.9,34.02-51.5.14-.22.08-.52-.14-.66-.08-.05-.17-.08-.26-.08h-26.49c-.65,0-1.25.33-1.58.88-5.03,8.18-11.98,19.38-20.85,33.6-.06.1-.19.15-.4.15s-.34-.05-.4-.15c-8.87-14.21-15.83-25.41-20.87-33.59-.33-.55-.93-.88-1.58-.88h-26.49c-.27.01-.48.23-.48.49,0,.09.03.18.08.26,13.61,20.59,24.95,37.76,34.04,51.49.13.2.2.45.2.74ZM520.22,682.56c13.29,0,20.05.01,20.3.04.2.02.35.19.35.4l.04,42.79c0,.44.35.79.79.79h24.15c.47,0,.86-.38.86-.85h0v-104.63c0-.34-.28-.62-.63-.62h-24.57c-.34,0-.61.27-.61.6h0v39.09c0,.23-.19.42-.42.43-2.5,0-9.25,0-20.25,0-11,0-17.75,0-20.25-.02-.23,0-.41-.19-.42-.42l.03-39.09c0-.33-.27-.6-.61-.6h0l-24.57-.02c-.35,0-.63.28-.63.62l-.07,104.63c0,.47.39.85.86.85l24.15.02c.44,0,.79-.35.79-.79l.07-42.79c0-.2.14-.37.34-.4.25-.03,7.02-.04,20.3-.03ZM616.39,620.52c-.23,0-.43.14-.51.35l-38.58,104.92c-.1.28.04.59.32.7.06.02.12.03.18.03h24.87c.23,0,.43-.14.51-.35l8.24-22.42c.08-.21.28-.35.51-.35h33.34c.23,0,.43.14.51.35l8.31,22.43c.08.21.28.35.51.35h25.5c.3,0,.54-.24.54-.54,0-.07-.01-.13-.03-.19l-38.87-104.93c-.08-.21-.28-.35-.51-.35h-24.84ZM717.79,666.15l46.13,59.36c.51.65,1.28,1.03,2.1,1.03h19.93c.29,0,.53-.23.53-.52v-105.13c0-.23-.19-.42-.42-.42h-24.45c-.22,0-.39.18-.39.4h0v60.48c0,.17-.14.3-.3.3-.09,0-.17-.04-.23-.11l-46.76-60.17c-.45-.57-1.14-.91-1.87-.91h-19.62c-.37,0-.67.3-.67.67v104.55c0,.5.4.9.89.9h23.73c.53,0,.96-.43.96-.96v-59.32c0-.14.12-.24.26-.24.07,0,.13.04.18.09ZM946.23,703.94l-.09-21.1c0-.21.17-.37.38-.38l41-.05c.3,0,.54-.24.55-.54l.21-19.11c0-.49-.39-.88-.88-.89,0,0,0,0-.01,0l-40.5-.02c-.35,0-.63-.28-.63-.63h0l-.02-18.62c0-.23.19-.42.43-.42h0l47.48.05c.53,0,.96-.43.97-.96l.16-20.19c0-.33-.26-.59-.58-.59h0l-73.98-.07c-.16,0-.29.13-.29.3l-.07,105.06c0,.41.33.74.74.74l75.24.07c.34,0,.61-.27.61-.61,0,0,0,0,0-.01l-.15-20.69c0-.32-.27-.58-.59-.58l-49.26-.04c-.4,0-.72-.32-.72-.72h0ZM578.91,790.52c-23.89,0-47.95-5.72-67.9-19.14-5.28-3.55-8.83-7.52-12.32-12.28-.45-.61-1.16-.97-1.91-.97h-148.75c-.3,0-.54.25-.54.54,0,.03,0,.05,0,.08,4.1,28.03,16.56,54.96,36.22,75.51,23.7,24.78,56.15,42.7,90.39,48.93.44.08.75.46.75.9v74.01c0,.52.42.94.94.94h69.43c.47,0,.86-.38.86-.85h0v-67c0-.3.24-.54.54-.54,11.63.11,22.38.16,32.26.17,9.89,0,20.64-.05,32.27-.15.29,0,.53.24.54.53l-.03,67c0,.47.39.85.86.85h0l69.44.03c.52,0,.94-.42.94-.94h0l.02-74.02c0-.44.32-.81.75-.89,34.24-6.22,66.7-24.13,90.41-48.89,19.67-20.55,32.14-47.48,36.25-75.5.04-.29-.16-.57-.45-.61-.03,0-.05,0-.08,0l-148.76-.06c-.75,0-1.46.36-1.9.97-3.49,4.75-7.04,8.73-12.33,12.28-19.95,13.4-44.01,19.12-67.91,19.11Z" style="stroke-width: 0px;"/>
  <path d="M578.93,210.53c9.89,0,20.65.06,32.28.17.3,0,.54-.24.54-.54v-67.03c0-.47.39-.85.86-.85h69.47c.52,0,.94.42.94.94h0v74.05c0,.44.31.82.75.9,34.25,6.23,66.72,24.16,90.43,48.95,19.67,20.56,32.14,47.51,36.24,75.55.04.29-.16.57-.45.61-.03,0-.05,0-.08,0h-148.83c-.75,0-1.46-.36-1.91-.97-3.49-4.76-7.04-8.74-12.32-12.29-19.97-13.42-44.03-19.15-67.94-19.15-23.91-.01-47.98,5.71-67.95,19.12-5.28,3.55-8.83,7.53-12.32,12.29-.45.61-1.16.97-1.92.97l-148.83-.06c-.3,0-.54-.25-.54-.54,0-.03,0-.05,0-.08,4.12-28.04,16.6-54.99,36.28-75.54,23.72-24.78,56.19-42.7,90.45-48.91.44-.08.75-.46.75-.9l.03-74.05c0-.52.42-.94.94-.94l69.47.03c.47,0,.86.38.86.85l-.03,67.03c0,.29.25.53.54.53,11.63-.1,22.39-.15,32.28-.15Z" style="fill: #4f8447; stroke-width: 0px;"/>
  <path d="M848.7,538.52c-25.09,27.13-64.04,35.53-99.27,25.71-11.83-3.3-22.93-9.2-33.29-17.7-20.61-16.91-31.94-40.68-33.48-67.61-1.55-26.86,6.6-51.66,24.64-71.17,18.03-19.5,42.13-29.56,69.03-30.12,26.96-.56,51.54,8.88,70.01,28.1,9.29,9.67,16.04,20.27,20.25,31.81,12.54,34.36,7.2,73.84-17.89,100.98ZM740.76,427.93v14.14c0,.33.24.6.56.64.31.05,2.21.15,5.68.3,2.09.09,3.13,1.11,3.14,3.05.06,12.13.07,30.27.04,54.44,0,1.98-.19,3.45-.55,4.4-.25.65-.87,1.08-1.58,1.08h-6.48c-.41,0-.75.34-.75.75h0v14.16c0,.28.22.5.5.5h21.17c.39,0,.71.32.71.71v11.76c0,.3.24.54.53.54h9.63c.26,0,.47-.21.47-.47h0v-11.65c0-.47.38-.85.84-.85h7.25c.48,0,.87.39.87.88v11.44c0,.35.28.63.63.63h9.96c.26,0,.47-.21.47-.47h0v-12.11c0-.35.27-.64.62-.68,16.79-1.49,30.38-9.91,30.24-28.58-.08-10.55-6-18.96-16.14-22.2-.32-.1-.5-.44-.4-.76.05-.16.16-.29.31-.37,4.73-2.39,8.14-6.13,9.61-11.29,2.34-8.24.6-18.47-6.25-23.73-4.96-3.81-10.71-6.15-17.26-7.01-.37-.05-.64-.37-.64-.74v-11.21c0-.31-.25-.56-.56-.56h-9.66c-.5,0-.9.4-.9.89v10.48c0,.51-.42.93-.93.93h-7.12c-.47,0-.85-.38-.85-.85h0v-10.62c0-.45-.36-.81-.81-.81h-9.29c-.31-.01-.56.25-.56.56h0v11.24c0,.45-.36.81-.81.81h-21.06c-.35,0-.63.28-.63.63h0Z" style="fill: #fff; stroke-width: 0px;"/>
  <path d="M383.41,527.49c5.4,0,10.22-.98,14.46-2.93,18.49-8.49,20.7-24,20.6-42.29-.19-35.63-.2-68.96-.04-99.99,0-.3.25-.55.56-.55h43.73c.31,0,.57.26.57.57.05,62.22.06,100.53.04,114.94-.03,18.43-7,37.5-20.59,50.09-16.24,15.04-37.54,20.19-59.31,20.2-21.78,0-43.08-5.11-59.34-20.14-13.6-12.58-20.59-31.64-20.64-50.07-.03-14.41-.06-52.72-.07-114.94,0-.31.26-.57.57-.57h0l43.73-.04c.31,0,.56.25.56.55h0c.19,31.03.21,64.36.06,99.99-.08,18.29,2.14,33.79,20.64,42.27,4.25,1.94,9.07,2.91,14.47,2.91Z" style="fill: #fff; stroke-width: 0px;"/>
  <path d="M541.24,458.24c-.21.31-.32,1.56-.31,3.77.15,31.63.15,65.22-.01,100.77,0,.33-.26.59-.59.59h-42.89c-.3,0-.55-.25-.55-.55v-180.37c0-.36.29-.65.65-.65h41.22c.66,0,1.27.32,1.64.86l71.15,103.22c.07.11.22.14.33.07.07-.04.11-.12.11-.2v-103.49c0-.27.21-.48.48-.48h43.4c.38,0,.68.3.68.68v180.15c0,.41-.33.75-.74.75h-41.26c-.41,0-.79-.2-1.02-.54l-72.09-104.58c-.04-.06-.11-.07-.17-.03-.01,0-.02.02-.03.03Z" style="fill: #fff; stroke-width: 0px;"/>
  <path d="M741.39,427.3h21.06c.45,0,.81-.36.81-.81v-11.24c0-.31.25-.57.56-.57h9.29c.45.01.81.37.81.82v10.62c0,.47.38.85.85.85h7.12c.51,0,.93-.42.93-.93v-10.48c0-.49.4-.89.9-.89h9.66c.31,0,.56.25.56.56v11.21c0,.37.27.69.64.74,6.55.86,12.3,3.2,17.26,7.01,6.85,5.26,8.59,15.49,6.25,23.73-1.47,5.16-4.88,8.9-9.61,11.29-.3.15-.43.51-.28.82.07.15.21.26.37.31,10.14,3.24,16.06,11.65,16.14,22.2.14,18.67-13.45,27.09-30.24,28.58-.35.04-.62.33-.62.68v12.11c0,.26-.21.47-.47.47h-9.96c-.35,0-.63-.28-.63-.63h0v-11.44c0-.49-.39-.88-.87-.88h-7.25c-.46,0-.84.38-.84.85h0v11.65c0,.26-.21.47-.47.47h-9.63c-.29,0-.53-.24-.53-.54h0v-11.76c0-.39-.32-.71-.71-.71h-21.17c-.28,0-.5-.22-.5-.5v-14.16c0-.41.34-.75.75-.75h6.48c.71,0,1.33-.43,1.58-1.08.36-.95.54-2.42.55-4.4.03-24.17.02-42.31-.04-54.44,0-1.94-1.05-2.96-3.14-3.05-3.47-.15-5.37-.25-5.68-.3-.32-.04-.56-.31-.56-.64v-14.14c0-.35.28-.63.63-.63h0ZM770.06,443.66l.35,20.01c0,.39.32.7.71.69h0l12.17-.21c7.77-.14,13.99-4.79,13.89-10.39,0,0,0,0,0,0l-.02-1.11c-.09-5.6-6.47-10.04-14.24-9.91h-.01s-12.16.21-12.16.21c-.39,0-.7.32-.69.71,0,0,0,0,0,.01ZM770.14,481.29l.16,23.82c0,.41.34.74.75.73h0l15.14-.1c8.66-.06,15.64-5.39,15.6-11.9h0s-.02-1.72-.02-1.72c-.05-6.51-7.1-11.74-15.76-11.68l-15.14.11c-.4,0-.73.34-.73.74Z" style="stroke-width: 0px;"/>
  <path d="M770.06,443.66c-.01-.39.29-.71.68-.72,0,0,0,0,.01,0l12.16-.21c7.77-.14,14.15,4.29,14.25,9.9h0s.02,1.12.02,1.12c.1,5.6-6.11,10.26-13.88,10.4,0,0,0,0,0,0l-12.17.21c-.39,0-.7-.3-.71-.69h0s-.35-20.01-.35-20.01Z" style="fill: #fff; stroke-width: 0px;"/>
  <path d="M770.14,481.29c0-.4.33-.73.73-.74l15.14-.11c8.66-.06,15.71,5.17,15.76,11.68l.02,1.72c.05,6.51-6.94,11.84-15.6,11.9,0,0,0,0,0,0l-15.14.1c-.41,0-.74-.32-.75-.73h0s-.16-23.82-.16-23.82Z" style="fill: #fff; stroke-width: 0px;"/>
  <path d="M439.99,656.01c-4.44-8.62-11.93-13.41-21.38-13.98-9.03-.55-16.72,1.84-22.53,9.04-3.73,4.62-6.05,10.01-6.96,16.18-1.86,12.57,1.4,22.94,9.78,31.11,5.28,5.15,13.3,7.36,20.63,6.58,9.19-.97,16.05-5.74,20.6-14.31.11-.2.36-.28.56-.18,0,0,0,0,0,0l19,10.29c.73.4,1.06,1.27.79,2.05-2.36,6.7-9.04,12.9-14.54,16.35-12.43,7.81-26.14,10.27-41.11,7.4-9.14-1.75-17.67-6.53-25.6-14.34-23.56-23.22-21.52-61.12,4.24-81.74,5.57-4.47,12.21-7.58,19.92-9.33,20.11-4.56,44.97,1.04,55.69,20.25.23.4.12.91-.24,1.19l-17.63,13.7c-.36.28-.87.21-1.15-.15-.03-.04-.06-.08-.08-.12Z" style="fill: #fff; stroke-width: 0px;"/>
  <path d="M882.05,717.3c0-.23-.19-.42-.42-.42-.1,0-.19.03-.26.1-7.43,6.23-14.17,10.02-24.32,10.61-21.67,1.27-40.05-10.06-49.56-29.35-10.78-21.9-5.91-48.31,11.86-64.88,21.36-19.92,63.65-19.29,79.79,7.1.25.4.17.93-.19,1.23l-17.47,14.8c-.14.11-.33.1-.44-.03,0,0-.01-.01-.02-.02-4.76-6.5-8.96-11.33-16.83-13.58-17.15-4.91-31.75,4.99-35.36,21.96-2.76,12.95.21,28.66,12.47,36.29,7.56,4.69,15.69,5.47,24.39,2.32,5.91-2.13,14.8-7.75,15.63-14.26.04-.35-.2-.66-.54-.7-.03,0-.06,0-.09,0h-19.04c-.44,0-.8-.36-.8-.81h0v-17.06c0-.34.27-.61.61-.61h41.4c.43,0,.78.34.78.77h0v55.05c0,.44-.36.8-.8.8h-20.04c-.41,0-.75-.34-.75-.75v-8.55Z" style="fill: #fff; stroke-width: 0px;"/>
  <path d="M256.25,705.31v20.78c0,.32-.26.58-.58.58h-75.54c-.32,0-.58-.26-.58-.58v-105.12c0-.32.26-.58.58-.58h73.68c.32,0,.58.26.58.58v20.59c0,.32-.26.58-.58.58h-47.82c-.32,0-.58.26-.58.58v18.55c0,.32.26.58.58.58h40.87c.32,0,.58.26.58.58h0v19.45c0,.32-.26.58-.58.58h-40.85c-.32,0-.58.26-.58.58v21.11c0,.32.26.58.58.58h49.66c.32,0,.58.26.58.58h0Z" style="fill: #fff; stroke-width: 0px;"/>
  <path d="M312.02,655.19c.21,0,.34-.05.4-.15,8.87-14.22,15.82-25.42,20.85-33.6.33-.55.93-.88,1.58-.88h26.49c.27,0,.48.22.48.48,0,.09-.03.18-.08.26-13.6,20.6-24.94,37.77-34.02,51.5-.13.2-.2.45-.2.75s.07.55.2.75c9.09,13.73,20.43,30.89,34.04,51.48.14.22.08.52-.14.66-.08.05-.17.08-.26.08h-26.49c-.65.01-1.25-.32-1.58-.87-5.03-8.17-11.99-19.37-20.86-33.59-.07-.1-.2-.15-.41-.15s-.33.05-.4.15c-8.87,14.22-15.82,25.42-20.85,33.6-.33.55-.93.88-1.58.88h-26.49c-.27,0-.48-.22-.48-.48,0-.09.03-.18.08-.26,13.6-20.6,24.94-37.77,34.02-51.5.13-.2.2-.45.2-.75s-.07-.54-.2-.74c-9.09-13.73-20.43-30.9-34.04-51.49-.14-.22-.08-.52.14-.66.08-.05.17-.08.26-.08h26.49c.65-.01,1.25.32,1.58.87,5.04,8.18,12,19.38,20.87,33.59.06.1.19.15.4.15Z" style="fill: #fff; stroke-width: 0px;"/>
  <path d="M520.23,660.6c11,0,17.75,0,20.25,0,.23,0,.42-.2.42-.43v-39.09c0-.33.27-.6.61-.6h24.57c.35,0,.63.28.63.62v104.63c0,.47-.39.85-.86.85h-24.15c-.44,0-.79-.35-.79-.79h0s-.04-42.79-.04-42.79c0-.21-.15-.38-.35-.4-.25-.03-7.01-.04-20.3-.04-13.28,0-20.05,0-20.3.03-.2.03-.34.2-.34.4l-.07,42.79c0,.44-.35.79-.79.79l-24.15-.02c-.47,0-.86-.38-.86-.85l.07-104.63c0-.34.28-.62.63-.62l24.57.02c.34,0,.61.27.61.6h0l-.03,39.09c0,.23.19.41.42.42,2.5.01,9.25.02,20.25.02Z" style="fill: #fff; stroke-width: 0px;"/>
  <path d="M616.39,620.52h24.84c.23,0,.43.14.51.35l38.87,104.93c.1.28-.04.59-.32.7-.06.02-.13.04-.19.03h-25.5c-.23,0-.43-.14-.51-.35l-8.31-22.43c-.08-.21-.28-.35-.51-.35h-33.34c-.23,0-.43.14-.51.35l-8.24,22.42c-.08.21-.28.35-.51.35h-24.87c-.3,0-.54-.25-.53-.55,0-.06.01-.13.03-.18l38.58-104.92c.08-.21.28-.35.51-.35ZM616.29,684.79c-.06.18.04.38.22.44.03.01.07.02.11.02l24.09.08c.19,0,.35-.15.35-.35,0-.04,0-.07-.01-.1l-11.92-37.23c-.06-.18-.25-.29-.44-.23-.11.03-.2.12-.23.23l-12.17,37.14Z" style="fill: #fff; stroke-width: 0px;"/>
  <path d="M717.79,666.15c-.09-.11-.25-.12-.35-.03-.05.04-.08.11-.09.18v59.32c0,.53-.43.96-.96.96h-23.73c-.49,0-.89-.4-.89-.9v-104.55c0-.37.3-.67.67-.67h19.62c.73,0,1.42.34,1.87.91l46.76,60.17c.11.13.3.14.42.04.07-.06.11-.14.11-.23v-60.48c0-.22.17-.4.39-.4h24.45c.23,0,.42.19.42.42h0v105.13c0,.29-.24.52-.53.52h-19.93c-.82,0-1.59-.38-2.1-1.03l-46.13-59.36Z" style="fill: #fff; stroke-width: 0px;"/>
  <path d="M946.23,703.94c0,.4.32.72.72.72h0l49.26.04c.32,0,.58.26.59.58l.15,20.69c0,.34-.26.61-.6.62,0,0,0,0-.01,0l-75.24-.07c-.41,0-.74-.33-.74-.74l.07-105.06c0-.17.13-.3.29-.3l73.98.07c.32,0,.58.26.58.59h0s-.16,20.19-.16,20.19c0,.53-.44.96-.97.96l-47.48-.05c-.24,0-.43.19-.43.42h0l.02,18.62c0,.35.28.63.63.63h0l40.5.02c.49,0,.89.39.89.88,0,0,0,0,0,0l-.21,19.11c0,.3-.25.54-.55.54l-41,.05c-.21,0-.37.17-.38.38l.09,21.1Z" style="fill: #fff; stroke-width: 0px;"/>
  <path d="M616.29,684.79l12.17-37.14c.06-.18.25-.29.44-.23.11.03.2.12.23.23l11.92,37.23c.06.19-.05.38-.24.44-.03.01-.07.02-.1.01l-24.09-.08c-.19,0-.35-.16-.35-.35,0-.04,0-.07.02-.11Z" style="stroke-width: 0px;"/>
  <path d="M578.91,790.52c23.9.01,47.96-5.71,67.91-19.11,5.29-3.55,8.84-7.53,12.33-12.28.44-.61,1.15-.97,1.9-.97l148.76.06c.3,0,.54.25.54.54,0,.03,0,.05,0,.08-4.11,28.02-16.58,54.95-36.25,75.5-23.71,24.76-56.17,42.67-90.41,48.89-.43.08-.75.45-.75.89l-.02,74.02c0,.52-.42.94-.94.94h0l-69.44-.03c-.47,0-.86-.38-.86-.85h0l.03-67c0-.29-.25-.53-.54-.53-11.63.1-22.38.15-32.27.15-9.88,0-20.63-.06-32.26-.17-.3,0-.54.24-.54.54v67c0,.47-.39.85-.86.85h-69.43c-.52,0-.94-.42-.94-.94h0v-74.01c0-.44-.31-.82-.75-.9-34.24-6.23-66.69-24.15-90.39-48.93-19.66-20.55-32.12-47.48-36.22-75.51-.04-.29.16-.57.45-.61.03,0,.05,0,.08,0h148.75c.75,0,1.46.36,1.91.97,3.49,4.76,7.04,8.73,12.32,12.28,19.95,13.42,44.01,19.14,67.9,19.14Z" style="fill: #4f8447; stroke-width: 0px;"/>
</svg>